/* XPM */
static char *ebc4a843459e421a95ad4b3303c41fd8[] = {
/* columns rows colors chars-per-pixel */
"32 32 2 1 ",
"  c RoyalBlue",
". c None",
/* pixels */
"................................",
"........    .......     ........",
".......      .....      ........",
".......       ....       .......",
".......       ...        .......",
".......        ..        .......",
".......        ..        .......",
".......        ..        .......",
".......        ..        .......",
"........       ..       ........",
"........      ....      ...   ..",
".     ...     ....     ...     .",
"       ..................       ",
"       .................        ",
"        ................        ",
"        ................        ",
"        ................        ",
".       .....       ....       .",
".       ...          ...      ..",
"..      ..            ...    ...",
"....   ..              .........",
".........               ........",
"........                 .......",
".......                  .......",
".......                   ......",
".......                   ......",
"......                     .....",
"......                     .....",
"......                     .....",
"......                     .....",
".......      ........     ......",
"................................"
};
